<?xml version="1.0" encoding="UTF-8"?>
<svg width="760px" height="57px" viewBox="0 0 760 57" version="1.1" xmlns="http://www.w3.org/2000/svg" xmlns:xlink="http://www.w3.org/1999/xlink">
    <!-- Generator: Sketch 41 (35326) - http://www.bohemiancoding.com/sketch -->
    <title>quote</title>
    <desc>Created with Sketch.</desc>
    <defs></defs>
    <g id="Page-1" stroke="none" stroke-width="1" fill="none" fill-rule="evenodd">
        <g id="Desktop-HD" transform="translate(-309.000000, -149.000000)">
            <g id="quote" transform="translate(309.000000, 149.000000)">
                <g id="Group" transform="translate(0.000000, 11.000000)">
                    <path d="M6.06273782,36 L0.961885551,36 L0.961885551,2.15625 L8.27580601,2.15625 L13.025806,26.4190341 L17.5868856,2.15625 L24.6309196,2.15625 L24.6309196,36 L19.5300674,36 L19.5300674,14.7329545 L15.103931,36 L11.0016583,36 L6.06273782,14.7869318 L6.06273782,36 Z M37.564474,28.2272727 L36.3229967,36 L31.0062354,36 L36.7548149,2.18323864 L43.7718604,2.18323864 L49.439474,36 L44.095724,36 L42.8812354,28.2272727 L37.564474,28.2272727 Z M40.236349,9.92897727 L38.3471444,23.2613636 L42.1255535,23.2613636 L40.236349,9.92897727 Z M60.9696192,25.3125 L60.9696192,36 L55.8417783,36 L55.8417783,2.15625 L60.9696192,2.15625 L60.9696192,14.2201705 L67.1770056,2.15625 L72.6287102,2.15625 L65.6386533,16.0014205 L73.8162102,36 L67.8247329,36 L62.4809829,22.2897727 L60.9696192,25.3125 Z M80.0835713,36 L80.0835713,2.15625 L94.6034577,2.15625 L94.6034577,7.25710227 L85.1844236,7.25710227 L85.1844236,16.5142045 L92.0665259,16.5142045 L92.0665259,21.6420455 L85.1844236,21.6420455 L85.1844236,30.8991477 L94.6034577,30.8991477 L94.6034577,36 L80.0835713,36 Z M112.67085,21.8309659 L105.842725,2.15625 L111.456362,2.15625 L115.234771,14.3011364 L118.986191,2.15625 L124.626816,2.15625 L117.771703,21.8309659 L117.771703,36 L112.67085,36 L112.67085,21.8309659 Z M137.020598,1.75142045 C139.269662,1.75142045 141.181338,2.5430792 142.755683,4.12642045 C144.330028,5.7097617 145.117189,7.6169396 145.117189,9.84801136 L145.117189,28.3082386 C145.117189,30.5573029 144.32553,32.4689789 142.742189,34.0433239 C141.158848,35.6176689 139.25167,36.4048295 137.020598,36.4048295 C134.771534,36.4048295 132.864356,35.6131708 131.299007,34.0298295 C129.733658,32.4464883 128.950996,30.5393104 128.950996,28.3082386 L128.950996,9.84801136 C128.950996,7.59894709 129.742654,5.68727113 131.325996,4.11292614 C132.909337,2.53858114 134.807519,1.75142045 137.020598,1.75142045 Z M139.800428,9.74005682 C139.800428,8.93039368 139.51705,8.24219033 138.950285,7.67542614 C138.383521,7.10866194 137.695318,6.82528409 136.885655,6.82528409 C136.075992,6.82528409 135.38329,7.10866194 134.80753,7.67542614 C134.231769,8.24219033 133.943893,8.93039368 133.943893,9.74005682 L133.943893,28.2542614 C133.943893,29.0639245 134.231769,29.7521278 134.80753,30.318892 C135.38329,30.8856562 136.075992,31.1690341 136.885655,31.1690341 C137.695318,31.1690341 138.383521,30.8856562 138.950285,30.318892 C139.51705,29.7521278 139.800428,29.0639245 139.800428,28.2542614 L139.800428,9.74005682 Z M159.751027,36.3778409 C157.501963,36.3778409 155.594785,35.5951783 154.029436,34.0298295 C152.464088,32.4644808 151.681425,30.566299 151.681425,28.3352273 L151.681425,2.18323864 L156.674323,2.18323864 L156.674323,28.28125 C156.674323,29.0909131 156.962199,29.7791165 157.537959,30.3458807 C158.11372,30.9126449 158.806421,31.1960227 159.616084,31.1960227 C160.425747,31.1960227 161.113951,30.9126449 161.680715,30.3458807 C162.247479,29.7791165 162.530857,29.0909131 162.530857,28.28125 L162.530857,2.18323864 L167.847618,2.18323864 L167.847618,28.3352273 C167.847618,30.6022841 167.055959,32.509462 165.472618,34.0568182 C163.889277,35.6041744 161.982099,36.3778409 159.751027,36.3778409 Z M182.535434,2.18323864 C185.378251,2.18323864 187.465352,2.96590126 188.796798,4.53125 C189.966311,5.89868108 190.551059,7.80585898 190.551059,10.2528409 L190.551059,15.1647727 C190.551059,17.5577771 189.642451,19.5819046 187.825207,21.2372159 L191.603616,36 L186.097934,36 L182.994241,23.234375 C182.850301,23.2523675 182.697367,23.2613636 182.535434,23.2613636 L179.593673,23.2613636 L179.593673,36 L174.49282,36 L174.49282,2.18323864 L182.535434,2.18323864 Z M185.58515,10.3338068 C185.58515,8.37262277 184.613569,7.39204545 182.670377,7.39204545 L179.593673,7.39204545 L179.593673,18.2144886 L182.670377,18.2144886 C183.48004,18.2144886 184.168244,17.9266127 184.735008,17.3508523 C185.301772,16.7750918 185.58515,16.0823904 185.58515,15.2727273 L185.58515,10.3338068 Z M542.497874,36.4318182 C540.24881,36.4318182 538.337134,35.6401594 536.762789,34.0568182 C535.188444,32.4734769 534.401283,30.5752952 534.401283,28.3622159 L534.401283,9.90198864 C534.401283,7.65292436 535.192942,5.7412484 536.776283,4.16690341 C538.359624,2.59255842 540.266802,1.80539773 542.497874,1.80539773 C544.746938,1.80539773 546.654116,2.59705648 548.219465,4.18039773 C549.784814,5.76373898 550.567476,7.67091687 550.567476,9.90198864 L550.567476,13.7613636 L545.277704,13.7613636 L545.277704,9.79403409 C545.277704,8.98437095 544.989828,8.29166955 544.414067,7.71590909 C543.838307,7.14014864 543.145605,6.85227273 542.335942,6.85227273 C541.526279,6.85227273 540.838076,7.14014864 540.271312,7.71590909 C539.704547,8.29166955 539.42117,8.98437095 539.42117,9.79403409 L539.42117,28.3082386 C539.42117,29.1179018 539.704547,29.8061051 540.271312,30.3728693 C540.838076,30.9396335 541.526279,31.2230114 542.335942,31.2230114 C543.145605,31.2230114 543.838307,30.9396335 544.414067,30.3728693 C544.989828,29.8061051 545.277704,29.1179018 545.277704,28.3082386 L545.277704,21.6420455 L542.443897,21.6420455 L542.443897,16.5411932 L550.567476,16.5411932 L550.567476,28.3622159 C550.567476,30.6112802 549.775818,32.5184581 548.192476,34.0838068 C546.609135,35.6491556 544.710953,36.4318182 542.497874,36.4318182 Z M565.147337,2.18323864 C567.990155,2.18323864 570.077255,2.96590126 571.408701,4.53125 C572.578215,5.89868108 573.162962,7.80585898 573.162962,10.2528409 L573.162962,15.1647727 C573.162962,17.5577771 572.254354,19.5819046 570.43711,21.2372159 L574.215519,36 L568.709837,36 L565.606144,23.234375 C565.462204,23.2523675 565.30927,23.2613636 565.147337,23.2613636 L562.205576,23.2613636 L562.205576,36 L557.104724,36 L557.104724,2.18323864 L565.147337,2.18323864 Z M568.197053,10.3338068 C568.197053,8.37262277 567.225472,7.39204545 565.282281,7.39204545 L562.205576,7.39204545 L562.205576,18.2144886 L565.282281,18.2144886 C566.091944,18.2144886 566.780147,17.9266127 567.346911,17.3508523 C567.913676,16.7750918 568.197053,16.0823904 568.197053,15.2727273 L568.197053,10.3338068 Z M580.69879,36 L580.69879,2.15625 L595.218676,2.15625 L595.218676,7.25710227 L585.799642,7.25710227 L585.799642,16.5142045 L592.681744,16.5142045 L592.681744,21.6420455 L585.799642,21.6420455 L585.799642,30.8991477 L595.218676,30.8991477 L595.218676,36 L580.69879,36 Z M607.396548,28.2272727 L606.155071,36 L600.83831,36 L606.586889,2.18323864 L613.603935,2.18323864 L619.271548,36 L613.927798,36 L612.71331,28.2272727 L607.396548,28.2272727 Z M610.068423,9.92897727 L608.179219,23.2613636 L611.957628,23.2613636 L610.068423,9.92897727 Z M626.32158,7.28409091 L620.896864,7.28409091 L620.896864,2.18323864 L636.82016,2.18323864 L636.82016,7.28409091 L631.422432,7.28409091 L631.422432,36 L626.32158,36 L626.32158,7.28409091 Z M654.617666,28.2272727 L653.376189,36 L648.059427,36 L653.808007,2.18323864 L660.825052,2.18323864 L666.492666,36 L661.148916,36 L659.934427,28.2272727 L654.617666,28.2272727 Z M657.289541,9.92897727 L655.400336,23.2613636 L659.178746,23.2613636 L657.289541,9.92897727 Z M680.208891,36.4318182 C677.959827,36.4318182 676.048151,35.6401594 674.473806,34.0568182 C672.899461,32.4734769 672.1123,30.5752952 672.1123,28.3622159 L672.1123,9.90198864 C672.1123,7.65292436 672.903959,5.7412484 674.4873,4.16690341 C676.070641,2.59255842 677.977819,1.80539773 680.208891,1.80539773 C682.457955,1.80539773 684.365133,2.59705648 685.930482,4.18039773 C687.49583,5.76373898 688.278493,7.67091687 688.278493,9.90198864 L688.278493,13.7613636 L682.98872,13.7613636 L682.98872,9.79403409 C682.98872,8.98437095 682.700844,8.29166955 682.125084,7.71590909 C681.549324,7.14014864 680.856622,6.85227273 680.046959,6.85227273 C679.237296,6.85227273 678.549093,7.14014864 677.982328,7.71590909 C677.415564,8.29166955 677.132186,8.98437095 677.132186,9.79403409 L677.132186,28.3082386 C677.132186,29.1179018 677.415564,29.8061051 677.982328,30.3728693 C678.549093,30.9396335 679.237296,31.2230114 680.046959,31.2230114 C680.856622,31.2230114 681.549324,30.9396335 682.125084,30.3728693 C682.700844,29.8061051 682.98872,29.1179018 682.98872,28.3082386 L682.98872,21.6420455 L680.154914,21.6420455 L680.154914,16.5411932 L688.278493,16.5411932 L688.278493,28.3622159 C688.278493,30.6112802 687.486834,32.5184581 685.903493,34.0838068 C684.320152,35.6491556 682.42197,36.4318182 680.208891,36.4318182 Z M700.456366,28.2272727 L699.214888,36 L693.898127,36 L699.646707,2.18323864 L706.663752,2.18323864 L712.331366,36 L706.987616,36 L705.773127,28.2272727 L700.456366,28.2272727 Z M703.128241,9.92897727 L701.239036,23.2613636 L705.017445,23.2613636 L703.128241,9.92897727 Z M723.834522,36 L718.73367,36 L718.73367,2.18323864 L723.834522,2.18323864 L723.834522,36 Z M736.255293,2.15625 L743.002452,24.8806818 L743.002452,2.15625 L748.103304,2.15625 L748.103304,36 L742.624611,36 L735.607565,14.328125 L735.607565,36 L730.506713,36 L730.506713,2.15625 L736.255293,2.15625 Z M753.722938,21.0752841 L753.722938,2.15625 L758.82379,2.15625 L758.82379,21.0752841 L758.445949,27.6065341 L754.100779,27.6065341 L753.722938,21.0752841 Z M753.722938,36 L753.722938,30.8991477 L758.82379,30.8991477 L758.82379,36 L753.722938,36 Z" id="Make-your-great-agai" fill-opacity="0.789628623" fill="#0AA8C5"></path>
                    <path d="M7.16595107,35 L2.06509879,35 L2.06509879,1.15625 L9.37901925,1.15625 L14.1290192,25.4190341 L18.6900988,1.15625 L25.7341329,1.15625 L25.7341329,35 L20.6332806,35 L20.6332806,13.7329545 L16.2071442,35 L12.1048715,35 L7.16595107,13.7869318 L7.16595107,35 Z M38.6676872,27.2272727 L37.42621,35 L32.1094486,35 L37.8580281,1.18323864 L44.8750736,1.18323864 L50.5426872,35 L45.1989372,35 L43.9844486,27.2272727 L38.6676872,27.2272727 Z M41.3395622,8.92897727 L39.4503577,22.2613636 L43.2287668,22.2613636 L41.3395622,8.92897727 Z M62.0728325,24.3125 L62.0728325,35 L56.9449916,35 L56.9449916,1.15625 L62.0728325,1.15625 L62.0728325,13.2201705 L68.2802188,1.15625 L73.7319234,1.15625 L66.7418666,15.0014205 L74.9194234,35 L68.9279461,35 L63.5841961,21.2897727 L62.0728325,24.3125 Z M81.1867846,35 L81.1867846,1.15625 L95.7066709,1.15625 L95.7066709,6.25710227 L86.2876368,6.25710227 L86.2876368,15.5142045 L93.1697391,15.5142045 L93.1697391,20.6420455 L86.2876368,20.6420455 L86.2876368,29.8991477 L95.7066709,29.8991477 L95.7066709,35 L81.1867846,35 Z M113.774064,20.8309659 L106.945939,1.15625 L112.559575,1.15625 L116.337984,13.3011364 L120.089405,1.15625 L125.73003,1.15625 L118.874916,20.8309659 L118.874916,35 L113.774064,35 L113.774064,20.8309659 Z M138.123811,0.751420455 C140.372876,0.751420455 142.284551,1.5430792 143.858896,3.12642045 C145.433241,4.7097617 146.220402,6.6169396 146.220402,8.84801136 L146.220402,27.3082386 C146.220402,29.5573029 145.428743,31.4689789 143.845402,33.0433239 C142.262061,34.6176689 140.354883,35.4048295 138.123811,35.4048295 C135.874747,35.4048295 133.967569,34.6131708 132.40222,33.0298295 C130.836872,31.4464883 130.054209,29.5393104 130.054209,27.3082386 L130.054209,8.84801136 C130.054209,6.59894709 130.845868,4.68727113 132.429209,3.11292614 C134.01255,1.53858114 135.910732,0.751420455 138.123811,0.751420455 Z M140.903641,8.74005682 C140.903641,7.93039368 140.620263,7.24219033 140.053499,6.67542614 C139.486735,6.10866194 138.798531,5.82528409 137.988868,5.82528409 C137.179205,5.82528409 136.486504,6.10866194 135.910743,6.67542614 C135.334983,7.24219033 135.047107,7.93039368 135.047107,8.74005682 L135.047107,27.2542614 C135.047107,28.0639245 135.334983,28.7521278 135.910743,29.318892 C136.486504,29.8856562 137.179205,30.1690341 137.988868,30.1690341 C138.798531,30.1690341 139.486735,29.8856562 140.053499,29.318892 C140.620263,28.7521278 140.903641,28.0639245 140.903641,27.2542614 L140.903641,8.74005682 Z M160.854241,35.3778409 C158.605176,35.3778409 156.697998,34.5951783 155.13265,33.0298295 C153.567301,31.4644808 152.784638,29.566299 152.784638,27.3352273 L152.784638,1.18323864 L157.777536,1.18323864 L157.777536,27.28125 C157.777536,28.0909131 158.065412,28.7791165 158.641172,29.3458807 C159.216933,29.9126449 159.909634,30.1960227 160.719297,30.1960227 C161.528961,30.1960227 162.217164,29.9126449 162.783928,29.3458807 C163.350692,28.7791165 163.63407,28.0909131 163.63407,27.28125 L163.63407,1.18323864 L168.950831,1.18323864 L168.950831,27.3352273 C168.950831,29.6022841 168.159173,31.509462 166.575831,33.0568182 C164.99249,34.6041744 163.085312,35.3778409 160.854241,35.3778409 Z M183.638647,1.18323864 C186.481464,1.18323864 188.568565,1.96590126 189.900011,3.53125 C191.069524,4.89868108 191.654272,6.80585898 191.654272,9.25284091 L191.654272,14.1647727 C191.654272,16.5577771 190.745664,18.5819046 188.92842,20.2372159 L192.706829,35 L187.201147,35 L184.097454,22.234375 C183.953514,22.2523675 183.80058,22.2613636 183.638647,22.2613636 L180.696886,22.2613636 L180.696886,35 L175.596034,35 L175.596034,1.18323864 L183.638647,1.18323864 Z M186.688363,9.33380682 C186.688363,7.37262277 185.716782,6.39204545 183.77359,6.39204545 L180.696886,6.39204545 L180.696886,17.2144886 L183.77359,17.2144886 C184.583254,17.2144886 185.271457,16.9266127 185.838221,16.3508523 C186.404985,15.7750918 186.688363,15.0823904 186.688363,14.2727273 L186.688363,9.33380682 Z M543.601087,35.4318182 C541.352023,35.4318182 539.440347,34.6401594 537.866002,33.0568182 C536.291657,31.4734769 535.504496,29.5752952 535.504496,27.3622159 L535.504496,8.90198864 C535.504496,6.65292436 536.296155,4.7412484 537.879496,3.16690341 C539.462838,1.59255842 541.370016,0.805397727 543.601087,0.805397727 C545.850152,0.805397727 547.757329,1.59705648 549.322678,3.18039773 C550.888027,4.76373898 551.67069,6.67091687 551.67069,8.90198864 L551.67069,12.7613636 L546.380917,12.7613636 L546.380917,8.79403409 C546.380917,7.98437095 546.093041,7.29166955 545.51728,6.71590909 C544.94152,6.14014864 544.248819,5.85227273 543.439155,5.85227273 C542.629492,5.85227273 541.941289,6.14014864 541.374525,6.71590909 C540.807761,7.29166955 540.524383,7.98437095 540.524383,8.79403409 L540.524383,27.3082386 C540.524383,28.1179018 540.807761,28.8061051 541.374525,29.3728693 C541.941289,29.9396335 542.629492,30.2230114 543.439155,30.2230114 C544.248819,30.2230114 544.94152,29.9396335 545.51728,29.3728693 C546.093041,28.8061051 546.380917,28.1179018 546.380917,27.3082386 L546.380917,20.6420455 L543.54711,20.6420455 L543.54711,15.5411932 L551.67069,15.5411932 L551.67069,27.3622159 C551.67069,29.6112802 550.879031,31.5184581 549.29569,33.0838068 C547.712348,34.6491556 545.814167,35.4318182 543.601087,35.4318182 Z M566.250551,1.18323864 C569.093368,1.18323864 571.180468,1.96590126 572.511914,3.53125 C573.681428,4.89868108 574.266176,6.80585898 574.266176,9.25284091 L574.266176,14.1647727 C574.266176,16.5577771 573.357567,18.5819046 571.540323,20.2372159 L575.318733,35 L569.813051,35 L566.709358,22.234375 C566.565417,22.2523675 566.412483,22.2613636 566.250551,22.2613636 L563.308789,22.2613636 L563.308789,35 L558.207937,35 L558.207937,1.18323864 L566.250551,1.18323864 Z M569.300267,9.33380682 C569.300267,7.37262277 568.328685,6.39204545 566.385494,6.39204545 L563.308789,6.39204545 L563.308789,17.2144886 L566.385494,17.2144886 C567.195157,17.2144886 567.88336,16.9266127 568.450125,16.3508523 C569.016889,15.7750918 569.300267,15.0823904 569.300267,14.2727273 L569.300267,9.33380682 Z M581.802003,35 L581.802003,1.15625 L596.321889,1.15625 L596.321889,6.25710227 L586.902855,6.25710227 L586.902855,15.5142045 L593.784957,15.5142045 L593.784957,20.6420455 L586.902855,20.6420455 L586.902855,29.8991477 L596.321889,29.8991477 L596.321889,35 L581.802003,35 Z M608.499762,27.2272727 L607.258284,35 L601.941523,35 L607.690103,1.18323864 L614.707148,1.18323864 L620.374762,35 L615.031012,35 L613.816523,27.2272727 L608.499762,27.2272727 Z M611.171637,8.92897727 L609.282432,22.2613636 L613.060841,22.2613636 L611.171637,8.92897727 Z M627.424793,6.28409091 L622.000077,6.28409091 L622.000077,1.18323864 L637.923373,1.18323864 L637.923373,6.28409091 L632.525646,6.28409091 L632.525646,35 L627.424793,35 L627.424793,6.28409091 Z M655.720879,27.2272727 L654.479402,35 L649.162641,35 L654.91122,1.18323864 L661.928266,1.18323864 L667.595879,35 L662.252129,35 L661.037641,27.2272727 L655.720879,27.2272727 Z M658.392754,8.92897727 L656.50355,22.2613636 L660.281959,22.2613636 L658.392754,8.92897727 Z M681.312104,35.4318182 C679.06304,35.4318182 677.151364,34.6401594 675.577019,33.0568182 C674.002674,31.4734769 673.215513,29.5752952 673.215513,27.3622159 L673.215513,8.90198864 C673.215513,6.65292436 674.007172,4.7412484 675.590513,3.16690341 C677.173854,1.59255842 679.081032,0.805397727 681.312104,0.805397727 C683.561168,0.805397727 685.468346,1.59705648 687.033695,3.18039773 C688.599044,4.76373898 689.381706,6.67091687 689.381706,8.90198864 L689.381706,12.7613636 L684.091934,12.7613636 L684.091934,8.79403409 C684.091934,7.98437095 683.804058,7.29166955 683.228297,6.71590909 C682.652537,6.14014864 681.959835,5.85227273 681.150172,5.85227273 C680.340509,5.85227273 679.652306,6.14014864 679.085542,6.71590909 C678.518777,7.29166955 678.2354,7.98437095 678.2354,8.79403409 L678.2354,27.3082386 C678.2354,28.1179018 678.518777,28.8061051 679.085542,29.3728693 C679.652306,29.9396335 680.340509,30.2230114 681.150172,30.2230114 C681.959835,30.2230114 682.652537,29.9396335 683.228297,29.3728693 C683.804058,28.8061051 684.091934,28.1179018 684.091934,27.3082386 L684.091934,20.6420455 L681.258127,20.6420455 L681.258127,15.5411932 L689.381706,15.5411932 L689.381706,27.3622159 C689.381706,29.6112802 688.590048,31.5184581 687.006706,33.0838068 C685.423365,34.6491556 683.525183,35.4318182 681.312104,35.4318182 Z M701.559579,27.2272727 L700.318102,35 L695.00134,35 L700.74992,1.18323864 L707.766965,1.18323864 L713.434579,35 L708.090829,35 L706.87634,27.2272727 L701.559579,27.2272727 Z M704.231454,8.92897727 L702.342249,22.2613636 L706.120658,22.2613636 L704.231454,8.92897727 Z M724.937736,35 L719.836883,35 L719.836883,1.18323864 L724.937736,1.18323864 L724.937736,35 Z M737.358506,1.15625 L744.105665,23.8806818 L744.105665,1.15625 L749.206517,1.15625 L749.206517,35 L743.727824,35 L736.710778,13.328125 L736.710778,35 L731.609926,35 L731.609926,1.15625 L737.358506,1.15625 Z M754.826151,20.0752841 L754.826151,1.15625 L759.927003,1.15625 L759.927003,20.0752841 L759.549162,26.6065341 L755.203992,26.6065341 L754.826151,20.0752841 Z M754.826151,35 L754.826151,29.8991477 L759.927003,29.8991477 L759.927003,35 L754.826151,35 Z" id="Make-your-great-agai" fill="#272D3A"></path>
                </g>
                <rect id="Rectangle" fill="#4C2C3E" x="221.526777" y="0" width="284.985394" height="57"></rect>
                <text id="placeholders" font-family="Bebas" font-size="38" font-weight="normal" letter-spacing="2.11111116" fill-opacity="0.789628623" fill="#0AA8C5">
                    <tspan x="235.731589" y="47">placeholders</tspan>
                </text>
                <text id="placeholders" font-family="Bebas" font-size="38" font-weight="normal" letter-spacing="2.11111116" fill="#F4F0CA">
                    <tspan x="236.783195" y="46">placeholders</tspan>
                </text>
            </g>
        </g>
    </g>
</svg>